<?xml version="1.0" encoding="UTF-8"?>
<!-- Generator: Adobe Illustrator 18.0.0, SVG Export Plug-In . SVG Version: 6.00 Build 0)  -->
<!DOCTYPE svg PUBLIC "-//W3C//DTD SVG 1.1//EN" "http://www.w3.org/Graphics/SVG/1.1/DTD/svg11.dtd">
<svg version="1.1" id="Layer_2" xmlns="http://www.w3.org/2000/svg" xmlns:xlink="http://www.w3.org/1999/xlink" x="0px" y="0px" viewBox="0 0 100 100" enable-background="new 0 0 100 100" xml:space="preserve">
<g>
	<path fill="#808080" d="M62.4,7.6H42.2c-9,0-15.3,2-20.9,6.6c-4.4,3.8-7.1,9.3-7.1,14.8c0,8.4,6.4,17.4,18.3,17.4   c1.1,0,2.4-0.1,3.5-0.2L36,46.6c-0.5,1.1-0.9,2.2-0.9,3.9c0,3.3,1.6,5.3,3.1,7.3l0.2,0.2L38,58c-4.9,0.3-14.1,1-20.7,5.1   c-7.9,4.7-8.5,11.5-8.5,13.5c0,7.9,7.3,15.8,23.7,15.8c19.1,0,29-10.5,29-20.9c0-7.7-4.5-11.5-9.3-15.5l-4-3.1   c-1.2-1-2.8-2.3-2.8-4.7c0-2.3,1.6-3.9,2.9-5.2l0.1-0.1c4.4-3.4,9.3-7.3,9.3-15.7c0-8.5-5.3-12.8-7.8-14.9h6.7c0.1,0,0.2,0,0.2-0.1   l5.8-3.6c0.2-0.1,0.2-0.3,0.2-0.5C62.8,7.7,62.6,7.6,62.4,7.6z M37.9,87.8c-11.6,0-19.4-5.4-19.4-13.5c0-5.3,3.2-9.1,9.5-11.4   c5-1.7,11.5-1.8,11.6-1.8c1.1,0,1.7,0,2.5,0.1c8.1,5.8,12,8.8,12,14.6C54.1,83.2,47.9,87.8,37.9,87.8z M37.8,43.3   C28,43.3,24,30.5,24,23.6c0-3.5,0.8-6.2,2.4-8.2c1.8-2.2,4.8-3.6,7.7-3.6c9,0,13.9,12,13.9,20.4c0,1.3,0,5.3-2.8,8.1   C43.5,42,40.4,43.3,37.8,43.3z"/>
	<path fill="#808080" d="M90.8,47.2H80.1V36.6c0-0.2-0.2-0.4-0.4-0.4h-4.6c-0.2,0-0.4,0.2-0.4,0.4v10.6H64.1c-0.2,0-0.4,0.2-0.4,0.4   v4.6c0,0.2,0.2,0.4,0.4,0.4h10.6v10.7c0,0.2,0.2,0.4,0.4,0.4h4.6c0.2,0,0.4-0.2,0.4-0.4V52.7h10.7c0.2,0,0.4-0.2,0.4-0.4v-4.6   C91.2,47.4,91,47.2,90.8,47.2z"/>
</g>
</svg>