<?xml version="1.0" encoding="UTF-8"?>
<!-- Generator: Adobe Illustrator 18.0.0, SVG Export Plug-In . SVG Version: 6.00 Build 0)  -->
<!DOCTYPE svg PUBLIC "-//W3C//DTD SVG 1.1//EN" "http://www.w3.org/Graphics/SVG/1.1/DTD/svg11.dtd">
<svg version="1.1" id="Icons" xmlns="http://www.w3.org/2000/svg" xmlns:xlink="http://www.w3.org/1999/xlink" x="0px" y="0px" viewBox="0 0 100 100" enable-background="new 0 0 100 100" xml:space="preserve">
<path id="Twitter__x28_alt_x29_" fill="#808080" d="M84.8,46.6c5.1-0.4,8.5-2.7,9.8-5.8c-1.8,1.1-7.5,2.3-10.6,1.2  c-0.2-0.7-0.3-1.4-0.5-2.1C81.1,31.1,73,24.1,64.4,24.9c0.7-0.3,1.4-0.5,2.1-0.8c0.9-0.3,6.5-1.2,5.6-3.2c-0.7-1.7-7.5,1.3-8.7,1.7  c1.7-0.6,4.4-1.7,4.7-3.6c-2.6,0.4-5.1,1.6-7,3.3c0.7-0.8,1.2-1.7,1.3-2.7C55.6,24,51.6,32.9,48.3,41.4c-2.5-2.5-4.8-4.4-6.8-5.5  c-5.7-3-12.4-6.2-23.1-10.2c-0.3,3.5,1.7,8.2,7.7,11.3c-1.3-0.2-3.7,0.2-5.5,0.7c0.8,4,3.3,7.4,10.1,9c-3.1,0.2-4.7,0.9-6.2,2.4  c1.4,2.8,4.9,6.1,11.1,5.4c-6.9,3-2.8,8.5,2.8,7.7c-9.6,9.9-24.7,9.2-33.4,0.9C27.7,94,76.9,81.4,84.3,51.7c5.5,0,8.7-1.9,10.7-4.1  C91.8,48.1,87.2,47.6,84.8,46.6z"/>
</svg>